<svg width="242" height="243" viewBox="0 0 242 243" fill="none" xmlns="http://www.w3.org/2000/svg">
<mask id="mask0_124_308" style="mask-type:alpha" maskUnits="userSpaceOnUse" x="0" y="0" width="242" height="243">
<ellipse cx="120.972" cy="121.5" rx="120.972" ry="121.5" fill="#C4C4C4"/>
</mask>
<g mask="url(#mask0_124_308)">
<rect x="-44.9077" y="-14.0654" width="336.632" height="277.345" fill="#B99F86"/>
<g filter="url(#filter0_d_124_308)">
<path d="M0.0932617 151.259V11.2353V3.31665H263.672V231.798H234.06C225.164 200.638 191.241 145.04 126.72 171.925C62.1988 198.81 15.4183 169.35 0.0932617 151.259Z" fill="#D8C0A5"/>
<path d="M0.0932617 151.259V11.2353V3.31665H263.672V231.798H234.06C225.164 200.638 191.241 145.04 126.72 171.925C62.1988 198.81 15.4183 169.35 0.0932617 151.259Z" stroke="#D8C0A5" stroke-width="0.666187"/>
</g>
<g filter="url(#filter1_d_124_308)">
<path d="M79.1867 121.13C49.1859 86.752 39.5753 19.0898 33.6011 -19.8595H278.672V232.184H237.373C236.528 228.579 230.476 213.179 213.021 180.423C195.566 147.667 166.072 140.058 143.864 143.727C111.72 149.039 92.2133 136.058 79.1867 121.13Z" fill="#F5ECDB"/>
<path d="M79.1867 121.13C49.1859 86.752 39.5753 19.0898 33.6011 -19.8595H278.672V232.184H237.373C236.528 228.579 230.476 213.179 213.021 180.423C195.566 147.667 166.072 140.058 143.864 143.727C111.72 149.039 92.2133 136.058 79.1867 121.13Z" stroke="#F5ECDB" stroke-width="0.666187"/>
</g>
<g filter="url(#filter2_d_124_308)">
<path d="M69.3112 21.1532C31.8147 0.145084 15.8542 -18.9916 12.561 -25.9339L262.308 -27.9713L259.551 186.411H222.789C214.135 165.584 192.324 122.707 174.311 117.817C156.298 112.928 140.771 110.347 132.724 84.5396C121.007 46.9605 106.808 42.1612 69.3112 21.1532Z" fill="#ECF0EF"/>
<path d="M69.3112 21.1532C31.8147 0.145084 15.8542 -18.9916 12.561 -25.9339L262.308 -27.9713L259.551 186.411H222.789C214.135 165.584 192.324 122.707 174.311 117.817C156.298 112.928 140.771 110.347 132.724 84.5396C121.007 46.9605 106.808 42.1612 69.3112 21.1532Z" stroke="#E1E5E6" stroke-width="0.666187"/>
</g>
<g filter="url(#filter3_d_124_308)">
<path d="M138.993 43.103C115.226 42.1373 101.005 19.5403 98.6675 19.5403V6.40698L245.944 12.7805L249.256 118.813L220.619 121.71C211.722 121.517 192.566 116.997 187.111 100.465C181.657 83.9321 174.449 69.7559 171.527 64.7343C168.604 57.8458 158.007 43.8755 138.993 43.103Z" fill="#A3B5B5"/>
<path d="M138.993 43.103C115.226 42.1373 101.005 19.5403 98.6675 19.5403V6.40698L245.944 12.7805L249.256 118.813L220.619 121.71C211.722 121.517 192.566 116.997 187.111 100.465C181.657 83.9321 174.449 69.7559 171.527 64.7343C168.604 57.8458 158.007 43.8755 138.993 43.103Z" stroke="#A3B5B5" stroke-width="0.666187"/>
</g>
<g filter="url(#filter4_di_124_308)">
<path fill-rule="evenodd" clip-rule="evenodd" d="M263.867 -19.8595H-21.7246V263.279H263.867V-19.8595ZM121.071 223.493C177.771 223.493 223.736 177.923 223.736 121.71C223.736 65.4965 177.771 19.9266 121.071 19.9266C64.3705 19.9266 18.4058 65.4965 18.4058 121.71C18.4058 177.923 64.3705 223.493 121.071 223.493Z" fill="#E5E5E5"/>
</g>
</g>
<defs>
<filter id="filter0_d_124_308" x="-16.8944" y="-10.3402" width="304.216" height="269.118" filterUnits="userSpaceOnUse" color-interpolation-filters="sRGB">
<feFlood flood-opacity="0" result="BackgroundImageFix"/>
<feColorMatrix in="SourceAlpha" type="matrix" values="0 0 0 0 0 0 0 0 0 0 0 0 0 0 0 0 0 0 127 0" result="hardAlpha"/>
<feOffset dx="3.33094" dy="6.66187"/>
<feGaussianBlur stdDeviation="9.99281"/>
<feComposite in2="hardAlpha" operator="out"/>
<feColorMatrix type="matrix" values="0 0 0 0 0 0 0 0 0 0 0 0 0 0 0 0 0 0 0.4 0"/>
<feBlend mode="normal" in2="BackgroundImageFix" result="effect1_dropShadow_124_308"/>
<feBlend mode="normal" in="SourceGraphic" in2="effect1_dropShadow_124_308" result="shape"/>
</filter>
<filter id="filter1_d_124_308" x="16.5582" y="-33.5164" width="285.764" height="292.681" filterUnits="userSpaceOnUse" color-interpolation-filters="sRGB">
<feFlood flood-opacity="0" result="BackgroundImageFix"/>
<feColorMatrix in="SourceAlpha" type="matrix" values="0 0 0 0 0 0 0 0 0 0 0 0 0 0 0 0 0 0 127 0" result="hardAlpha"/>
<feOffset dx="3.33094" dy="6.66187"/>
<feGaussianBlur stdDeviation="9.99281"/>
<feComposite in2="hardAlpha" operator="out"/>
<feColorMatrix type="matrix" values="0 0 0 0 0 0 0 0 0 0 0 0 0 0 0 0 0 0 0.4 0"/>
<feBlend mode="normal" in2="BackgroundImageFix" result="effect1_dropShadow_124_308"/>
<feBlend mode="normal" in="SourceGraphic" in2="effect1_dropShadow_124_308" result="shape"/>
</filter>
<filter id="filter2_d_124_308" x="-4.61805" y="-41.6309" width="290.58" height="255.022" filterUnits="userSpaceOnUse" color-interpolation-filters="sRGB">
<feFlood flood-opacity="0" result="BackgroundImageFix"/>
<feColorMatrix in="SourceAlpha" type="matrix" values="0 0 0 0 0 0 0 0 0 0 0 0 0 0 0 0 0 0 127 0" result="hardAlpha"/>
<feOffset dx="3.33094" dy="6.66187"/>
<feGaussianBlur stdDeviation="9.99281"/>
<feComposite in2="hardAlpha" operator="out"/>
<feColorMatrix type="matrix" values="0 0 0 0 0 0 0 0 0 0 0 0 0 0 0 0 0 0 0.4 0"/>
<feBlend mode="normal" in2="BackgroundImageFix" result="effect1_dropShadow_124_308"/>
<feBlend mode="normal" in="SourceGraphic" in2="effect1_dropShadow_124_308" result="shape"/>
</filter>
<filter id="filter3_d_124_308" x="81.6798" y="-7.26454" width="191.235" height="155.955" filterUnits="userSpaceOnUse" color-interpolation-filters="sRGB">
<feFlood flood-opacity="0" result="BackgroundImageFix"/>
<feColorMatrix in="SourceAlpha" type="matrix" values="0 0 0 0 0 0 0 0 0 0 0 0 0 0 0 0 0 0 127 0" result="hardAlpha"/>
<feOffset dx="3.33094" dy="6.66187"/>
<feGaussianBlur stdDeviation="9.99281"/>
<feComposite in2="hardAlpha" operator="out"/>
<feColorMatrix type="matrix" values="0 0 0 0 0 0 0 0 0 0 0 0 0 0 0 0 0 0 0.4 0"/>
<feBlend mode="normal" in2="BackgroundImageFix" result="effect1_dropShadow_124_308"/>
<feBlend mode="normal" in="SourceGraphic" in2="effect1_dropShadow_124_308" result="shape"/>
</filter>
<filter id="filter4_di_124_308" x="-51.703" y="-46.507" width="352.211" height="349.757" filterUnits="userSpaceOnUse" color-interpolation-filters="sRGB">
<feFlood flood-opacity="0" result="BackgroundImageFix"/>
<feColorMatrix in="SourceAlpha" type="matrix" values="0 0 0 0 0 0 0 0 0 0 0 0 0 0 0 0 0 0 127 0" result="hardAlpha"/>
<feOffset dx="3.33094" dy="6.66187"/>
<feGaussianBlur stdDeviation="16.6547"/>
<feComposite in2="hardAlpha" operator="out"/>
<feColorMatrix type="matrix" values="0 0 0 0 0 0 0 0 0 0 0 0 0 0 0 0 0 0 0.6 0"/>
<feBlend mode="normal" in2="BackgroundImageFix" result="effect1_dropShadow_124_308"/>
<feBlend mode="normal" in="SourceGraphic" in2="effect1_dropShadow_124_308" result="shape"/>
<feColorMatrix in="SourceAlpha" type="matrix" values="0 0 0 0 0 0 0 0 0 0 0 0 0 0 0 0 0 0 127 0" result="hardAlpha"/>
<feOffset dx="-3.33094" dy="-3.33094"/>
<feGaussianBlur stdDeviation="6.66187"/>
<feComposite in2="hardAlpha" operator="arithmetic" k2="-1" k3="1"/>
<feColorMatrix type="matrix" values="0 0 0 0 1 0 0 0 0 1 0 0 0 0 1 0 0 0 0.5 0"/>
<feBlend mode="soft-light" in2="shape" result="effect2_innerShadow_124_308"/>
</filter>
</defs>
</svg>
