<svg width="360" height="267" viewBox="0 0 360 267" fill="none" xmlns="http://www.w3.org/2000/svg">
<g filter="url(#filter0_d_103_258)">
<path d="M34.6121 177.788C10.0666 177.788 18.2118 182.304 3 180.165V0H240.922L280.497 71.7808C254.827 83.0708 271.108 96.8565 212.994 112.781C189.659 119.176 180.907 102.204 157.852 112.781C154.809 134.363 149.176 130.251 143.234 131.915C131.35 131.915 131.67 162.109 99.6189 153.188C88.0911 149.979 65.9865 149.662 54.4588 153.188C38.415 155.802 41.5049 177.788 34.6121 177.788Z" fill="#A3B5B5"/>
<path d="M34.6121 177.788C10.0666 177.788 18.2118 182.304 3 180.165V0H240.922L280.497 71.7808C254.827 83.0708 271.108 96.8565 212.994 112.781C189.659 119.176 180.907 102.204 157.852 112.781C154.809 134.363 149.176 130.251 143.234 131.915C131.35 131.915 131.67 162.109 99.6189 153.188C88.0911 149.979 65.9865 149.662 54.4588 153.188C38.415 155.802 41.5049 177.788 34.6121 177.788Z" stroke="#A3B5B5"/>
</g>
<g filter="url(#filter1_d_103_258)">
<path d="M59.5691 122.883C38.5578 139.521 21.4207 110.484 3.83203 100.778V3.32764H360.835C365.707 30.2652 360.835 42.3079 360.835 72.0185C349.14 62.321 340.415 72.0185 336.947 80.8129C329.777 98.9958 327.678 106.126 304.86 91.5087C275.32 72.5847 249.836 75.3461 241.041 88.5376C231.891 104.106 219.056 96.3812 207.884 88.5376C201.586 80.8129 169.855 72.0185 175.203 91.5087C177.974 101.608 129.805 108.384 109.839 126.448C101.203 134.262 85.8333 102.086 59.5691 122.883Z" fill="#ECF0EF"/>
<path d="M59.5691 122.883C38.5578 139.521 21.4207 110.484 3.83203 100.778V3.32764H360.835C365.707 30.2652 360.835 42.3079 360.835 72.0185C349.14 62.321 340.415 72.0185 336.947 80.8129C329.777 98.9958 327.678 106.126 304.86 91.5087C275.32 72.5847 249.836 75.3461 241.041 88.5376C231.891 104.106 219.056 96.3812 207.884 88.5376C201.586 80.8129 169.855 72.0185 175.203 91.5087C177.974 101.608 129.805 108.384 109.839 126.448C101.203 134.262 85.8333 102.086 59.5691 122.883Z" stroke="#ECF0EF"/>
</g>
<g filter="url(#filter2_d_103_258)">
<path d="M56.1227 134.767C29.6921 125.545 9.85335 144.869 3.23779 155.684V1.54492H362.142V4.99135V38.5049C362.142 67.1222 244.961 65.9575 186.612 65.9575C164.032 65.9575 128.83 90.8431 118.277 113.376C105.086 141.541 89.1608 146.295 56.1227 134.767Z" fill="#F5ECDB"/>
<path d="M56.1227 134.767C29.6921 125.545 9.85335 144.869 3.23779 155.684V1.54492H362.142V4.99135V38.5049C362.142 67.1222 244.961 65.9575 186.612 65.9575C164.032 65.9575 128.83 90.8431 118.277 113.376C105.086 141.541 89.1608 146.295 56.1227 134.767Z" stroke="#F5ECDB"/>
</g>
<g filter="url(#filter3_d_103_258)">
<path d="M90.1114 96.7377C63.9661 124.024 19.0041 93.3308 3.95068 84.2592V1.54492H361.31V52.7689C361.545 52.7912 361.726 52.7984 361.863 52.7968C362.203 52.6144 362.46 52.7897 361.863 52.7968C361.646 52.913 361.395 53.1743 361.31 53.7167V52.7689C359.593 52.6062 355.004 51.6388 343.959 47.4181C314.724 36.2469 277.03 24.7967 235.456 61.3226C218.818 75.9403 193.98 78.0794 185.542 71.4242C164.467 61.2434 116.257 69.4515 90.1114 96.7377Z" fill="#D8C0A5"/>
<path d="M90.1114 96.7377C63.9661 124.024 19.0041 93.3308 3.95068 84.2592V1.54492H361.31V52.7689C361.545 52.7912 361.726 52.7984 361.863 52.7968C362.203 52.6144 362.46 52.7897 361.863 52.7968C361.646 52.913 361.395 53.1743 361.31 53.7167V52.7689C359.593 52.6062 355.004 51.6388 343.959 47.4181C314.724 36.2469 277.03 24.7967 235.456 61.3226C218.818 75.9403 193.98 78.0794 185.542 71.4242C164.467 61.2434 116.257 69.4515 90.1114 96.7377Z" stroke="#D8C0A5"/>
</g>
<g filter="url(#filter4_d_103_258)">
<path d="M120.773 50.9834C61.1613 86.0657 17.8947 65.601 3.71289 50.9834V2.7334H361.072V31.4932C351.683 26.898 328.153 21.8432 309.138 38.3861C290.123 54.929 273.247 53.6772 267.186 50.9834C243.22 36.3658 180.384 15.9011 120.773 50.9834Z" fill="#B99F86"/>
<path d="M120.773 50.9834C61.1613 86.0657 17.8947 65.601 3.71289 50.9834V2.7334H361.072V31.4932C351.683 26.898 328.153 21.8432 309.138 38.3861C290.123 54.929 273.247 53.6772 267.186 50.9834C243.22 36.3658 180.384 15.9011 120.773 50.9834Z" stroke="#B99F86"/>
</g>
<g filter="url(#filter5_d_103_258)">
<path d="M59.688 49.9138C37.916 61.3226 13.379 54.6674 3.83203 49.9138V1.78259H362.142V12.9538C352.516 14.4987 357.792 20.5834 328.985 10.2204C292.976 -2.73345 235.218 33.157 157.139 23.1742C79.0593 13.1915 86.9029 35.6527 59.688 49.9138Z" fill="#E5E5E5"/>
<path d="M59.688 49.9138C37.916 61.3226 13.379 54.6674 3.83203 49.9138V1.78259H362.142V12.9538C352.516 14.4987 357.792 20.5834 328.985 10.2204C292.976 -2.73345 235.218 33.157 157.139 23.1742C79.0593 13.1915 86.9029 35.6527 59.688 49.9138Z" stroke="#E5E5E5"/>
</g>
<defs>
<filter id="filter0_d_103_258" x="-62.5" y="-55.5" width="418.699" height="321.74" filterUnits="userSpaceOnUse" color-interpolation-filters="sRGB">
<feFlood flood-opacity="0" result="BackgroundImageFix"/>
<feColorMatrix in="SourceAlpha" type="matrix" values="0 0 0 0 0 0 0 0 0 0 0 0 0 0 0 0 0 0 127 0" result="hardAlpha"/>
<feMorphology radius="20" operator="dilate" in="SourceAlpha" result="effect1_dropShadow_103_258"/>
<feOffset dx="5" dy="15"/>
<feGaussianBlur stdDeviation="25"/>
<feComposite in2="hardAlpha" operator="out"/>
<feColorMatrix type="matrix" values="0 0 0 0 0 0 0 0 0 0 0 0 0 0 0 0 0 0 0.4 0"/>
<feBlend mode="normal" in2="BackgroundImageFix" result="effect1_dropShadow_103_258"/>
<feBlend mode="normal" in="SourceGraphic" in2="effect1_dropShadow_103_258" result="shape"/>
</filter>
<filter id="filter1_d_103_258" x="-61.668" y="-52.1724" width="500.168" height="265.599" filterUnits="userSpaceOnUse" color-interpolation-filters="sRGB">
<feFlood flood-opacity="0" result="BackgroundImageFix"/>
<feColorMatrix in="SourceAlpha" type="matrix" values="0 0 0 0 0 0 0 0 0 0 0 0 0 0 0 0 0 0 127 0" result="hardAlpha"/>
<feMorphology radius="20" operator="dilate" in="SourceAlpha" result="effect1_dropShadow_103_258"/>
<feOffset dx="5" dy="15"/>
<feGaussianBlur stdDeviation="25"/>
<feComposite in2="hardAlpha" operator="out"/>
<feColorMatrix type="matrix" values="0 0 0 0 0 0 0 0 0 0 0 0 0 0 0 0 0 0 0.4 0"/>
<feBlend mode="normal" in2="BackgroundImageFix" result="effect1_dropShadow_103_258"/>
<feBlend mode="normal" in="SourceGraphic" in2="effect1_dropShadow_103_258" result="shape"/>
</filter>
<filter id="filter2_d_103_258" x="-62.2622" y="-53.9551" width="499.904" height="296.414" filterUnits="userSpaceOnUse" color-interpolation-filters="sRGB">
<feFlood flood-opacity="0" result="BackgroundImageFix"/>
<feColorMatrix in="SourceAlpha" type="matrix" values="0 0 0 0 0 0 0 0 0 0 0 0 0 0 0 0 0 0 127 0" result="hardAlpha"/>
<feMorphology radius="20" operator="dilate" in="SourceAlpha" result="effect1_dropShadow_103_258"/>
<feOffset dx="5" dy="15"/>
<feGaussianBlur stdDeviation="25"/>
<feComposite in2="hardAlpha" operator="out"/>
<feColorMatrix type="matrix" values="0 0 0 0 0 0 0 0 0 0 0 0 0 0 0 0 0 0 0.4 0"/>
<feBlend mode="normal" in2="BackgroundImageFix" result="effect1_dropShadow_103_258"/>
<feBlend mode="normal" in="SourceGraphic" in2="effect1_dropShadow_103_258" result="shape"/>
</filter>
<filter id="filter3_d_103_258" x="-61.5493" y="-53.9551" width="499.27" height="247.247" filterUnits="userSpaceOnUse" color-interpolation-filters="sRGB">
<feFlood flood-opacity="0" result="BackgroundImageFix"/>
<feColorMatrix in="SourceAlpha" type="matrix" values="0 0 0 0 0 0 0 0 0 0 0 0 0 0 0 0 0 0 127 0" result="hardAlpha"/>
<feMorphology radius="20" operator="dilate" in="SourceAlpha" result="effect1_dropShadow_103_258"/>
<feOffset dx="5" dy="15"/>
<feGaussianBlur stdDeviation="25"/>
<feComposite in2="hardAlpha" operator="out"/>
<feColorMatrix type="matrix" values="0 0 0 0 0 0 0 0 0 0 0 0 0 0 0 0 0 0 0.4 0"/>
<feBlend mode="normal" in2="BackgroundImageFix" result="effect1_dropShadow_103_258"/>
<feBlend mode="normal" in="SourceGraphic" in2="effect1_dropShadow_103_258" result="shape"/>
</filter>
<filter id="filter4_d_103_258" x="-61.7871" y="-52.7666" width="498.359" height="208.621" filterUnits="userSpaceOnUse" color-interpolation-filters="sRGB">
<feFlood flood-opacity="0" result="BackgroundImageFix"/>
<feColorMatrix in="SourceAlpha" type="matrix" values="0 0 0 0 0 0 0 0 0 0 0 0 0 0 0 0 0 0 127 0" result="hardAlpha"/>
<feMorphology radius="20" operator="dilate" in="SourceAlpha" result="effect1_dropShadow_103_258"/>
<feOffset dx="5" dy="15"/>
<feGaussianBlur stdDeviation="25"/>
<feComposite in2="hardAlpha" operator="out"/>
<feColorMatrix type="matrix" values="0 0 0 0 0 0 0 0 0 0 0 0 0 0 0 0 0 0 0.4 0"/>
<feBlend mode="normal" in2="BackgroundImageFix" result="effect1_dropShadow_103_258"/>
<feBlend mode="normal" in="SourceGraphic" in2="effect1_dropShadow_103_258" result="shape"/>
</filter>
<filter id="filter5_d_103_258" x="-61.668" y="-53.7174" width="499.31" height="195.431" filterUnits="userSpaceOnUse" color-interpolation-filters="sRGB">
<feFlood flood-opacity="0" result="BackgroundImageFix"/>
<feColorMatrix in="SourceAlpha" type="matrix" values="0 0 0 0 0 0 0 0 0 0 0 0 0 0 0 0 0 0 127 0" result="hardAlpha"/>
<feMorphology radius="20" operator="dilate" in="SourceAlpha" result="effect1_dropShadow_103_258"/>
<feOffset dx="5" dy="15"/>
<feGaussianBlur stdDeviation="25"/>
<feComposite in2="hardAlpha" operator="out"/>
<feColorMatrix type="matrix" values="0 0 0 0 0 0 0 0 0 0 0 0 0 0 0 0 0 0 0.4 0"/>
<feBlend mode="normal" in2="BackgroundImageFix" result="effect1_dropShadow_103_258"/>
<feBlend mode="normal" in="SourceGraphic" in2="effect1_dropShadow_103_258" result="shape"/>
</filter>
</defs>
</svg>
